<mxfile host="app.diagrams.net" agent="Mozilla/5.0 (Windows NT 10.0; Win64; x64) AppleWebKit/537.36 (KHTML, like Gecko) Chrome/130.0.0.0 Safari/537.36" version="24.8.2">
  <diagram name="Page-1" id="AJMS1icwTOOGVkfyh9Gj">
    <mxGraphModel dx="2333" dy="1160" grid="1" gridSize="10" guides="1" tooltips="1" connect="1" arrows="1" fold="1" page="1" pageScale="1" pageWidth="850" pageHeight="1100" math="0" shadow="0">
      <root>
        <mxCell id="0" />
        <mxCell id="1" parent="0" />
        <mxCell id="lHBRARfxBDYm-X709YwH-202" value="" style="ellipse;fillColor=strokeColor;" vertex="1" parent="1">
          <mxGeometry x="2225" y="460" width="14" height="14" as="geometry" />
        </mxCell>
        <mxCell id="lHBRARfxBDYm-X709YwH-203" value="Phase A - Green Light (N-N, N-E, N-W)" style="rounded=1;arcSize=40;strokeWidth=2" vertex="1" parent="1">
          <mxGeometry x="2127" y="571" width="211" height="52" as="geometry" />
        </mxCell>
        <mxCell id="lHBRARfxBDYm-X709YwH-204" value="PhaseA" style="swimlane;fontStyle=1;align=center;verticalAlign=middle;startSize=25;container=0;collapsible=0;rounded=1;arcSize=14;dropTarget=0;" vertex="1" parent="1">
          <mxGeometry x="1686" y="546" width="734" height="382" as="geometry" />
        </mxCell>
        <mxCell id="lHBRARfxBDYm-X709YwH-205" value="Phase A - Yellow Light" style="rounded=1;arcSize=40;strokeWidth=2" vertex="1" parent="1">
          <mxGeometry x="1721" y="729" width="171" height="34" as="geometry" />
        </mxCell>
        <mxCell id="lHBRARfxBDYm-X709YwH-206" value="Phase A - Red Light" style="rounded=1;arcSize=40;strokeWidth=2" vertex="1" parent="1">
          <mxGeometry x="1731" y="869" width="152" height="34" as="geometry" />
        </mxCell>
        <mxCell id="lHBRARfxBDYm-X709YwH-207" value="PhaseB" style="swimlane;fontStyle=1;align=center;verticalAlign=middle;startSize=25;container=0;collapsible=0;rounded=1;arcSize=14;dropTarget=0;" vertex="1" parent="1">
          <mxGeometry x="840" y="1320" width="340" height="382" as="geometry" />
        </mxCell>
        <mxCell id="lHBRARfxBDYm-X709YwH-208" value="Phase B - Green Light (S-S, S-E, S-W)" style="rounded=1;arcSize=40;strokeWidth=2" vertex="1" parent="1">
          <mxGeometry x="917" y="1345" width="208" height="52" as="geometry" />
        </mxCell>
        <mxCell id="lHBRARfxBDYm-X709YwH-209" value="Phase B - Yellow Light" style="rounded=1;arcSize=40;strokeWidth=2" vertex="1" parent="1">
          <mxGeometry x="884" y="1503" width="172" height="34" as="geometry" />
        </mxCell>
        <mxCell id="lHBRARfxBDYm-X709YwH-210" value="Phase B - Red Light" style="rounded=1;arcSize=40;strokeWidth=2" vertex="1" parent="1">
          <mxGeometry x="894" y="1643" width="153" height="34" as="geometry" />
        </mxCell>
        <mxCell id="lHBRARfxBDYm-X709YwH-211" value="PhaseC" style="swimlane;fontStyle=1;align=center;verticalAlign=middle;startSize=25;container=0;collapsible=0;rounded=1;arcSize=14;dropTarget=0;" vertex="1" parent="1">
          <mxGeometry x="1169" y="2093" width="621" height="382" as="geometry" />
        </mxCell>
        <mxCell id="lHBRARfxBDYm-X709YwH-212" value="Phase C - Green Light (E-S, E-E, E-N, E-W)" style="rounded=1;arcSize=40;strokeWidth=2" vertex="1" parent="1">
          <mxGeometry x="1430" y="2148" width="240" height="52" as="geometry" />
        </mxCell>
        <mxCell id="lHBRARfxBDYm-X709YwH-213" value="Phase C - Yellow Light" style="rounded=1;arcSize=40;strokeWidth=2" vertex="1" parent="1">
          <mxGeometry x="1222" y="2275" width="173" height="34" as="geometry" />
        </mxCell>
        <mxCell id="lHBRARfxBDYm-X709YwH-214" value="Phase C - Red Light" style="rounded=1;arcSize=40;strokeWidth=2" vertex="1" parent="1">
          <mxGeometry x="1441" y="2415" width="153" height="34" as="geometry" />
        </mxCell>
        <mxCell id="lHBRARfxBDYm-X709YwH-215" value="PhaseD" style="swimlane;fontStyle=1;align=center;verticalAlign=middle;startSize=25;container=0;collapsible=0;rounded=1;arcSize=14;dropTarget=0;" vertex="1" parent="1">
          <mxGeometry x="1783" y="1320" width="335" height="382" as="geometry" />
        </mxCell>
        <mxCell id="lHBRARfxBDYm-X709YwH-216" value="Phase D - Green Light (W-S, W-W, W-N, W-E)" style="rounded=1;arcSize=40;strokeWidth=2" vertex="1" parent="1">
          <mxGeometry x="1818" y="1345" width="262" height="52" as="geometry" />
        </mxCell>
        <mxCell id="lHBRARfxBDYm-X709YwH-217" value="Phase D - Yellow Light" style="rounded=1;arcSize=40;strokeWidth=2" vertex="1" parent="1">
          <mxGeometry x="1889" y="1503" width="173" height="34" as="geometry" />
        </mxCell>
        <mxCell id="lHBRARfxBDYm-X709YwH-218" value="Phase D - Red Light" style="rounded=1;arcSize=40;strokeWidth=2" vertex="1" parent="1">
          <mxGeometry x="1899" y="1643" width="154" height="34" as="geometry" />
        </mxCell>
        <mxCell id="lHBRARfxBDYm-X709YwH-219" value="PedestrianCrossing_NS" style="swimlane;fontStyle=1;align=center;verticalAlign=middle;startSize=25;container=0;collapsible=0;rounded=1;arcSize=14;dropTarget=0;" vertex="1" parent="1">
          <mxGeometry x="911" y="979" width="789" height="251" as="geometry" />
        </mxCell>
        <mxCell id="lHBRARfxBDYm-X709YwH-220" value="Pedestrian Green (North-South)" style="rounded=1;arcSize=40;strokeWidth=2" vertex="1" parent="1">
          <mxGeometry x="1410" y="1060" width="190" height="52" as="geometry" />
        </mxCell>
        <mxCell id="lHBRARfxBDYm-X709YwH-221" value="Pedestrian Wait (North-South)" style="rounded=1;arcSize=40;strokeWidth=2" vertex="1" parent="1">
          <mxGeometry x="970" y="1153" width="128" height="52" as="geometry" />
        </mxCell>
        <mxCell id="lHBRARfxBDYm-X709YwH-222" value="PedestrianCrossing_EW" style="swimlane;fontStyle=1;align=center;verticalAlign=middle;startSize=25;container=0;collapsible=0;rounded=1;arcSize=14;dropTarget=0;" vertex="1" parent="1">
          <mxGeometry x="879" y="1752" width="761" height="250" as="geometry" />
        </mxCell>
        <mxCell id="lHBRARfxBDYm-X709YwH-223" value="Pedestrian Green (East-West)" style="rounded=1;arcSize=40;strokeWidth=2" vertex="1" parent="1">
          <mxGeometry x="1110" y="1810" width="177" height="52" as="geometry" />
        </mxCell>
        <mxCell id="lHBRARfxBDYm-X709YwH-224" value="Pedestrian Wait (East-West)" style="rounded=1;arcSize=40;strokeWidth=2" vertex="1" parent="1">
          <mxGeometry x="1201" y="1935" width="215" height="34" as="geometry" />
        </mxCell>
        <mxCell id="lHBRARfxBDYm-X709YwH-225" value="Vehicles moving N-N, N-E, N-W" style="whiteSpace=wrap;strokeWidth=2;" vertex="1" parent="1">
          <mxGeometry x="2594" y="696" width="272" height="101" as="geometry" />
        </mxCell>
        <mxCell id="lHBRARfxBDYm-X709YwH-226" value="Vehicles moving N-N, N-E, N-W" style="align=left;spacingLeft=4;" vertex="1" parent="1">
          <mxGeometry x="2629" y="721" width="202" height="51" as="geometry" />
        </mxCell>
        <mxCell id="lHBRARfxBDYm-X709YwH-227" value="Vehicles moving S-S, S-E, S-W" style="whiteSpace=wrap;strokeWidth=2;" vertex="1" parent="1">
          <mxGeometry x="1200" y="1469" width="265" height="101" as="geometry" />
        </mxCell>
        <mxCell id="lHBRARfxBDYm-X709YwH-228" value="Vehicles moving S-S, S-E, S-W" style="align=left;spacingLeft=4;" vertex="1" parent="1">
          <mxGeometry x="1235" y="1494" width="195" height="51" as="geometry" />
        </mxCell>
        <mxCell id="lHBRARfxBDYm-X709YwH-229" value="Vehicles moving E-S, E-E, E-N, E-W" style="whiteSpace=wrap;strokeWidth=2;" vertex="1" parent="1">
          <mxGeometry x="2167" y="2280" width="266" height="101" as="geometry" />
        </mxCell>
        <mxCell id="lHBRARfxBDYm-X709YwH-230" value="Vehicles moving E-S, E-E, E-N, E-W" style="align=left;spacingLeft=4;" vertex="1" parent="1">
          <mxGeometry x="2202" y="2305" width="196" height="51" as="geometry" />
        </mxCell>
        <mxCell id="lHBRARfxBDYm-X709YwH-231" value="Vehicles moving W-S, W-W, W-N, W-E" style="whiteSpace=wrap;strokeWidth=2;" vertex="1" parent="1">
          <mxGeometry x="1485" y="1469" width="278" height="101" as="geometry" />
        </mxCell>
        <mxCell id="lHBRARfxBDYm-X709YwH-232" value="Vehicles moving W-S, W-W, W-N, W-E" style="align=left;spacingLeft=4;" vertex="1" parent="1">
          <mxGeometry x="1520" y="1494" width="220" height="51" as="geometry" />
        </mxCell>
        <mxCell id="lHBRARfxBDYm-X709YwH-233" value="North-South Pedestrian crossing" style="whiteSpace=wrap;strokeWidth=2;" vertex="1" parent="1">
          <mxGeometry x="1951" y="1128" width="251" height="102" as="geometry" />
        </mxCell>
        <mxCell id="lHBRARfxBDYm-X709YwH-234" value="North-South Pedestrian crossing" style="align=left;spacingLeft=4;" vertex="1" parent="1">
          <mxGeometry x="1986" y="1154" width="181" height="51" as="geometry" />
        </mxCell>
        <mxCell id="lHBRARfxBDYm-X709YwH-235" value="East-West Pedestrian crossing" style="whiteSpace=wrap;strokeWidth=2;" vertex="1" parent="1">
          <mxGeometry x="2249" y="1902" width="235" height="101" as="geometry" />
        </mxCell>
        <mxCell id="lHBRARfxBDYm-X709YwH-236" value="East-West Pedestrian crossing" style="align=left;spacingLeft=4;" vertex="1" parent="1">
          <mxGeometry x="2284" y="1927" width="176" height="51" as="geometry" />
        </mxCell>
        <mxCell id="lHBRARfxBDYm-X709YwH-237" value="System Initialization" style="curved=1;startArrow=none;;exitX=0.51;exitY=1;entryX=0.5;entryY=0.01;rounded=0;" edge="1" parent="1" source="lHBRARfxBDYm-X709YwH-202" target="lHBRARfxBDYm-X709YwH-203">
          <mxGeometry relative="1" as="geometry">
            <Array as="points" />
          </mxGeometry>
        </mxCell>
        <mxCell id="lHBRARfxBDYm-X709YwH-238" value="Timer A Green expires" style="curved=1;startArrow=none;;exitX=0;exitY=0.8;entryX=0.5;entryY=0;rounded=0;" edge="1" parent="1" source="lHBRARfxBDYm-X709YwH-203" target="lHBRARfxBDYm-X709YwH-205">
          <mxGeometry relative="1" as="geometry">
            <Array as="points">
              <mxPoint x="1806" y="660" />
            </Array>
          </mxGeometry>
        </mxCell>
        <mxCell id="lHBRARfxBDYm-X709YwH-239" value="Timer A Yellow expires" style="curved=1;startArrow=none;;exitX=0.5;exitY=1.01;entryX=0.5;entryY=0.01;rounded=0;" edge="1" parent="1" source="lHBRARfxBDYm-X709YwH-205" target="lHBRARfxBDYm-X709YwH-206">
          <mxGeometry relative="1" as="geometry">
            <Array as="points" />
          </mxGeometry>
        </mxCell>
        <mxCell id="lHBRARfxBDYm-X709YwH-240" value="" style="curved=1;startArrow=none;;exitX=0.5;exitY=1.02;entryX=0.5;entryY=-0.01;rounded=0;" edge="1" parent="1" source="lHBRARfxBDYm-X709YwH-206" target="lHBRARfxBDYm-X709YwH-220">
          <mxGeometry relative="1" as="geometry">
            <Array as="points" />
          </mxGeometry>
        </mxCell>
        <mxCell id="lHBRARfxBDYm-X709YwH-241" value="Pedestrian timer expires" style="curved=1;startArrow=none;;exitX=0;exitY=0.6;entryX=0.5;entryY=0;rounded=0;" edge="1" parent="1" source="lHBRARfxBDYm-X709YwH-220" target="lHBRARfxBDYm-X709YwH-221">
          <mxGeometry relative="1" as="geometry">
            <Array as="points">
              <mxPoint x="1021" y="1092" />
            </Array>
          </mxGeometry>
        </mxCell>
        <mxCell id="lHBRARfxBDYm-X709YwH-242" value="Pedestrian crossing complete" style="curved=1;startArrow=none;;exitX=0.5;exitY=1;entryX=0.5;entryY=0;rounded=0;" edge="1" parent="1" source="lHBRARfxBDYm-X709YwH-221" target="lHBRARfxBDYm-X709YwH-208">
          <mxGeometry relative="1" as="geometry">
            <Array as="points" />
          </mxGeometry>
        </mxCell>
        <mxCell id="lHBRARfxBDYm-X709YwH-243" value="Timer B Green expires" style="curved=1;startArrow=none;;exitX=0.4;exitY=1;entryX=0.5;entryY=-0.01;rounded=0;" edge="1" parent="1" source="lHBRARfxBDYm-X709YwH-208" target="lHBRARfxBDYm-X709YwH-209">
          <mxGeometry relative="1" as="geometry">
            <Array as="points">
              <mxPoint x="970" y="1433" />
            </Array>
          </mxGeometry>
        </mxCell>
        <mxCell id="lHBRARfxBDYm-X709YwH-244" value="Timer B Yellow expires" style="curved=1;startArrow=none;;exitX=0.5;exitY=1;entryX=0.5;entryY=-0.01;rounded=0;" edge="1" parent="1" source="lHBRARfxBDYm-X709YwH-209" target="lHBRARfxBDYm-X709YwH-210">
          <mxGeometry relative="1" as="geometry">
            <Array as="points" />
          </mxGeometry>
        </mxCell>
        <mxCell id="lHBRARfxBDYm-X709YwH-245" value="" style="curved=1;startArrow=none;;exitX=0.5;exitY=1.01;entryX=0;entryY=0.23;rounded=0;" edge="1" parent="1" source="lHBRARfxBDYm-X709YwH-210" target="lHBRARfxBDYm-X709YwH-223">
          <mxGeometry relative="1" as="geometry">
            <Array as="points">
              <mxPoint x="970" y="1752" />
            </Array>
          </mxGeometry>
        </mxCell>
        <mxCell id="lHBRARfxBDYm-X709YwH-246" value="Pedestrian timer expires" style="curved=1;startArrow=none;;exitX=0.5;exitY=1;entryX=0.36;entryY=0;rounded=0;" edge="1" parent="1" source="lHBRARfxBDYm-X709YwH-223" target="lHBRARfxBDYm-X709YwH-224">
          <mxGeometry relative="1" as="geometry">
            <Array as="points">
              <mxPoint x="1218" y="1902" />
            </Array>
          </mxGeometry>
        </mxCell>
        <mxCell id="lHBRARfxBDYm-X709YwH-247" value="Pedestrian crossing complete" style="curved=1;startArrow=none;;exitX=0.5;exitY=1.01;entryX=0.5;entryY=-0.01;rounded=0;" edge="1" parent="1" source="lHBRARfxBDYm-X709YwH-224" target="lHBRARfxBDYm-X709YwH-212">
          <mxGeometry relative="1" as="geometry">
            <Array as="points" />
          </mxGeometry>
        </mxCell>
        <mxCell id="lHBRARfxBDYm-X709YwH-248" value="Timer C Green expires" style="curved=1;startArrow=none;;exitX=0.5;exitY=0.99;entryX=0.5;entryY=0.01;rounded=0;" edge="1" parent="1" source="lHBRARfxBDYm-X709YwH-212" target="lHBRARfxBDYm-X709YwH-213">
          <mxGeometry relative="1" as="geometry">
            <Array as="points" />
          </mxGeometry>
        </mxCell>
        <mxCell id="lHBRARfxBDYm-X709YwH-249" value="Timer C Yellow expires" style="curved=1;startArrow=none;;exitX=0.5;exitY=1.02;entryX=0.06;entryY=0.01;rounded=0;" edge="1" parent="1" source="lHBRARfxBDYm-X709YwH-213" target="lHBRARfxBDYm-X709YwH-214">
          <mxGeometry relative="1" as="geometry">
            <Array as="points">
              <mxPoint x="1309" y="2379" />
            </Array>
          </mxGeometry>
        </mxCell>
        <mxCell id="lHBRARfxBDYm-X709YwH-250" value="" style="curved=1;startArrow=none;;exitX=1;exitY=0.4;entryX=0.47;entryY=0.99;rounded=0;" edge="1" parent="1" source="lHBRARfxBDYm-X709YwH-214" target="lHBRARfxBDYm-X709YwH-220">
          <mxGeometry relative="1" as="geometry">
            <Array as="points">
              <mxPoint x="2504" y="2379" />
              <mxPoint x="2504" y="1275" />
              <mxPoint x="1796" y="1230" />
              <mxPoint x="1796" y="1092" />
            </Array>
          </mxGeometry>
        </mxCell>
        <mxCell id="lHBRARfxBDYm-X709YwH-251" value="Timer D Green expires" style="curved=1;startArrow=none;;exitX=0.6;exitY=1;entryX=0.5;entryY=-0.01;rounded=0;" edge="1" parent="1" source="lHBRARfxBDYm-X709YwH-216" target="lHBRARfxBDYm-X709YwH-217">
          <mxGeometry relative="1" as="geometry">
            <Array as="points">
              <mxPoint x="1976" y="1433" />
            </Array>
          </mxGeometry>
        </mxCell>
        <mxCell id="lHBRARfxBDYm-X709YwH-252" value="Timer D Yellow expires" style="curved=1;startArrow=none;;exitX=0.5;exitY=1;entryX=0.5;entryY=-0.01;rounded=0;" edge="1" parent="1" source="lHBRARfxBDYm-X709YwH-217" target="lHBRARfxBDYm-X709YwH-218">
          <mxGeometry relative="1" as="geometry">
            <Array as="points" />
          </mxGeometry>
        </mxCell>
        <mxCell id="lHBRARfxBDYm-X709YwH-253" value="" style="curved=1;startArrow=none;;exitX=0.5;exitY=1.01;entryX=1;entryY=0.41;rounded=0;" edge="1" parent="1" source="lHBRARfxBDYm-X709YwH-218" target="lHBRARfxBDYm-X709YwH-223">
          <mxGeometry relative="1" as="geometry">
            <Array as="points">
              <mxPoint x="1976" y="1752" />
            </Array>
          </mxGeometry>
        </mxCell>
        <mxCell id="lHBRARfxBDYm-X709YwH-254" value="Cycle repeats" style="curved=1;startArrow=none;;exitX=1;exitY=0.31;entryX=0.65;entryY=1.01;rounded=0;" edge="1" parent="1" source="lHBRARfxBDYm-X709YwH-224" target="lHBRARfxBDYm-X709YwH-203">
          <mxGeometry relative="1" as="geometry">
            <Array as="points">
              <mxPoint x="2138" y="1902" />
              <mxPoint x="2138" y="1275" />
              <mxPoint x="2309" y="1230" />
              <mxPoint x="2309" y="660" />
            </Array>
          </mxGeometry>
        </mxCell>
        <mxCell id="lHBRARfxBDYm-X709YwH-255" value="" style="curved=1;dashed=1;startArrow=none;;exitX=0.69;exitY=1.01;entryX=0;entryY=0.25;rounded=0;" edge="1" parent="1" source="lHBRARfxBDYm-X709YwH-203" target="lHBRARfxBDYm-X709YwH-226">
          <mxGeometry relative="1" as="geometry">
            <Array as="points">
              <mxPoint x="2329" y="660" />
              <mxPoint x="2329" y="696" />
            </Array>
          </mxGeometry>
        </mxCell>
        <mxCell id="lHBRARfxBDYm-X709YwH-256" value="" style="curved=1;dashed=1;startArrow=none;;exitX=0.64;exitY=1;entryX=0;entryY=0.11;rounded=0;" edge="1" parent="1" source="lHBRARfxBDYm-X709YwH-208" target="lHBRARfxBDYm-X709YwH-228">
          <mxGeometry relative="1" as="geometry">
            <Array as="points">
              <mxPoint x="1091" y="1433" />
              <mxPoint x="1091" y="1469" />
            </Array>
          </mxGeometry>
        </mxCell>
        <mxCell id="lHBRARfxBDYm-X709YwH-258" value="" style="curved=1;dashed=1;startArrow=none;;exitX=0.38;exitY=1;entryX=1;entryY=0.08;rounded=0;" edge="1" parent="1" source="lHBRARfxBDYm-X709YwH-216" target="lHBRARfxBDYm-X709YwH-232">
          <mxGeometry relative="1" as="geometry">
            <Array as="points">
              <mxPoint x="1864" y="1433" />
              <mxPoint x="1864" y="1469" />
            </Array>
          </mxGeometry>
        </mxCell>
        <mxCell id="lHBRARfxBDYm-X709YwH-259" value="" style="curved=1;dashed=1;startArrow=none;;exitX=0.53;exitY=0.99;entryX=0;entryY=0.14;rounded=0;" edge="1" parent="1" source="lHBRARfxBDYm-X709YwH-220" target="lHBRARfxBDYm-X709YwH-234">
          <mxGeometry relative="1" as="geometry">
            <Array as="points">
              <mxPoint x="1816" y="1092" />
              <mxPoint x="1816" y="1128" />
            </Array>
          </mxGeometry>
        </mxCell>
        <mxCell id="lHBRARfxBDYm-X709YwH-260" value="" style="curved=1;dashed=1;startArrow=none;;exitX=1;exitY=0.59;entryX=0;entryY=0.1;rounded=0;" edge="1" parent="1" source="lHBRARfxBDYm-X709YwH-223" target="lHBRARfxBDYm-X709YwH-236">
          <mxGeometry relative="1" as="geometry">
            <Array as="points">
              <mxPoint x="2158" y="1865" />
              <mxPoint x="2158" y="1902" />
            </Array>
          </mxGeometry>
        </mxCell>
        <mxCell id="lHBRARfxBDYm-X709YwH-261" value="" style="curved=1;startArrow=none;;rounded=0;" edge="1" parent="1" source="lHBRARfxBDYm-X709YwH-204" target="lHBRARfxBDYm-X709YwH-203">
          <mxGeometry relative="1" as="geometry">
            <Array as="points" />
          </mxGeometry>
        </mxCell>
        <mxCell id="lHBRARfxBDYm-X709YwH-262" value="" style="curved=1;startArrow=none;;rounded=0;entryX=0.25;entryY=0;entryDx=0;entryDy=0;" edge="1" parent="1" source="lHBRARfxBDYm-X709YwH-219" target="lHBRARfxBDYm-X709YwH-220">
          <mxGeometry relative="1" as="geometry">
            <Array as="points" />
            <mxPoint x="1594.0018032786973" y="928" as="sourcePoint" />
            <mxPoint x="1421.428032786885" y="1049" as="targetPoint" />
          </mxGeometry>
        </mxCell>
        <mxCell id="lHBRARfxBDYm-X709YwH-263" value="" style="curved=1;startArrow=none;;rounded=0;" edge="1" parent="1" source="lHBRARfxBDYm-X709YwH-207" target="lHBRARfxBDYm-X709YwH-208">
          <mxGeometry relative="1" as="geometry">
            <Array as="points" />
          </mxGeometry>
        </mxCell>
        <mxCell id="lHBRARfxBDYm-X709YwH-264" value="" style="curved=1;startArrow=none;;rounded=0;exitX=0.25;exitY=0;exitDx=0;exitDy=0;" edge="1" parent="1" source="lHBRARfxBDYm-X709YwH-222" target="lHBRARfxBDYm-X709YwH-223">
          <mxGeometry relative="1" as="geometry">
            <Array as="points" />
          </mxGeometry>
        </mxCell>
        <mxCell id="lHBRARfxBDYm-X709YwH-265" value="" style="curved=1;startArrow=none;;rounded=0;entryX=0.55;entryY=0.036;entryDx=0;entryDy=0;entryPerimeter=0;" edge="1" parent="1" source="lHBRARfxBDYm-X709YwH-211" target="lHBRARfxBDYm-X709YwH-212">
          <mxGeometry relative="1" as="geometry">
            <Array as="points" />
          </mxGeometry>
        </mxCell>
        <mxCell id="lHBRARfxBDYm-X709YwH-266" value="" style="curved=1;startArrow=none;;rounded=0;" edge="1" parent="1" source="lHBRARfxBDYm-X709YwH-215" target="lHBRARfxBDYm-X709YwH-216">
          <mxGeometry relative="1" as="geometry">
            <Array as="points" />
          </mxGeometry>
        </mxCell>
        <mxCell id="lHBRARfxBDYm-X709YwH-267" value="" style="html=1;verticalAlign=bottom;labelBackgroundColor=none;endArrow=block;endFill=1;dashed=1;rounded=0;exitX=1;exitY=0.5;exitDx=0;exitDy=0;entryX=0;entryY=0.5;entryDx=0;entryDy=0;" edge="1" parent="1" source="lHBRARfxBDYm-X709YwH-212" target="lHBRARfxBDYm-X709YwH-230">
          <mxGeometry width="160" relative="1" as="geometry">
            <mxPoint x="1820" y="2120" as="sourcePoint" />
            <mxPoint x="1980" y="2120" as="targetPoint" />
          </mxGeometry>
        </mxCell>
      </root>
    </mxGraphModel>
  </diagram>
</mxfile>
